# File created by Blade
# Date/Time:  Tue Sep 30 19:11:10 2014
#---------------------------------------------------------
:version 1.10
:name HOM
:units
  mass 1.0
  length 1.000000
  angle deg
:documentation
     Acclaim Skeleton File
:root
   axis xyz
   order TX TY TZ RX RY RZ
   position 0.000000 0.000000 0.000000
   orientation 0 0 0
:bonedata
   begin
      id 1
      name Spine_dum
      direction 0.000000 1.000000 0.000000
      length 7.508948
      axis 0.0 0.0 0.0 xyz
   end
   begin
      id 2
      name LeftUpLeg_dum
      direction 1.000000 0.000000 0.000000
      length 3.000560
      axis 0.0 0.0 0.0 xyz
   end
   begin
      id 3
      name RightUpLeg_dum
      direction -1.000000 0.000000 0.000000
      length 3.000560
      axis 0.0 0.0 0.0 xyz
   end
   begin
      id 4
      name Spine
      direction 0.000000 1.000000 0.000000
      length 0.000000
      axis 0.0 0.0 0.0 xyz
      dof rx ry rz
   end
   begin
      id 5
      name Spine_dum1
      direction 0.000000 1.000000 0.000000
      length 13.861154
      axis 0.0 0.0 0.0 xyz
   end
   begin
      id 6
      name Spine_dum2
      direction 0.000000 1.000000 0.000000
      length 8.204781
      axis 0.0 0.0 0.0 xyz
   end
   begin
      id 7
      name Spine_dum3
      direction 0.000000 1.000000 0.000000
      length 8.204781
      axis 0.0 0.0 0.0 xyz
   end
   begin
      id 8
      name Head
      direction 0.000000 1.000000 0.000000
      length 4.527550
      axis 0.0 0.0 0.0 xyz
      dof rx ry rz
   end
   begin
      id 9
      name LeftShoulder
      direction 1.000000 0.000000 0.000000
      length 6.635956
      axis 0.0 0.0 -90.0 xyz
      dof rx ry rz
   end
   begin
      id 10
      name LeftArm
      direction 1.000000 0.000000 0.000000
      length 10.274218
      axis 0.0 0.0 -90.0 xyz
      dof rx ry rz
   end
   begin
      id 11
      name LeftForeArm
      direction 1.000000 0.000000 0.000000
      length 8.522147
      axis 0.0 0.0 -90.0 xyz
      dof ry rz rx
   end
   begin
      id 12
      name LeftHand
      direction 0.000000 0.000000 0.000000
      length 0.000000
      axis 0.0 0.0 -90.0 xyz
      dof rx ry rz
   end
   begin
      id 13
      name LeftHand_dum1
      direction 0.000000 0.000000 0.000000
      length 0.000000
      axis 0.0 0.0 -90.0 xyz
   end
   begin
      id 14
      name LeftHand_dum2
      direction 1.000000 0.000000 0.000000
      length 3.937000
      axis 0.0 0.0 -90.0 xyz
   end
   begin
      id 15
      name LeftHandThumb1
      direction 0.000000 0.000000 1.000000
      length 3.937000
      axis 0.0 0.0 -90.0 xyz
      dof rx rz ry
   end
   begin
      id 16
      name RightShoulder
      direction -1.000000 0.000000 0.000000
      length 6.635956
      axis 0.0 0.0 90.0 xyz
      dof rx ry rz
   end
   begin
      id 17
      name RightArm
      direction -1.000000 0.000000 0.000000
      length 10.274218
      axis 0.0 0.0 90.0 xyz
      dof rx ry rz
   end
   begin
      id 18
      name RightForeArm
      direction -1.000000 0.000000 0.000000
      length 8.522147
      axis 0.0 0.0 90.0 xyz
      dof ry rz rx
   end
   begin
      id 19
      name RightHand
      direction 0.000000 0.000000 0.000000
      length 0.000000
      axis 0.0 0.0 90.0 xyz
      dof rx ry rz
   end
   begin
      id 20
      name RightHand_dum1
      direction 0.000000 0.000000 0.000000
      length 0.000000
      axis 0.0 0.0 90.0 xyz
   end
   begin
      id 21
      name RightHand_dum2
      direction -1.000000 0.000000 0.000000
      length 3.937000
      axis 0.0 0.0 90.0 xyz
   end
   begin
      id 22
      name RightHandThumb1
      direction 0.000000 0.000000 1.000000
      length 3.937000
      axis 0.0 0.0 90.0 xyz
      dof rx rz ry
   end
   begin
      id 23
      name LeftUpLeg
      direction 0.000000 -1.000000 0.000000
      length 16.490845
      axis 0.0 0.0 0.0 xyz
      dof rx ry rz
   end
   begin
      id 24
      name LeftLeg
      direction 0.000000 -1.000000 0.000000
      length 14.556576
      axis 0.0 0.0 0.0 xyz
      dof rx ry rz
   end
   begin
      id 25
      name LeftFoot
      direction 0.000000 -0.258819 0.965926
      length 4.831116
      axis 15.0 0.0 0.0 xyz
      dof rx ry rz
   end
   begin
      id 26
      name LeftToeBase
      direction 0.000000 0.000000 1.000000
      length 2.952750
      axis 0.0 0.0 0.0 xyz
      dof rx ry rz
   end
   begin
      id 27
      name RightUpLeg
      direction 0.000000 -1.000000 0.000000
      length 16.490845
      axis 0.0 0.0 0.0 xyz
      dof rx ry rz
   end
   begin
      id 28
      name RightLeg
      direction 0.000000 -1.000000 0.000000
      length 14.556576
      axis 0.0 0.0 0.0 xyz
      dof rx ry rz
   end
   begin
      id 29
      name RightFoot
      direction 0.000000 -0.258819 0.965926
      length 4.831116
      axis 15.0 0.0 0.0 xyz
      dof rx ry rz
   end
   begin
      id 30
      name RightToeBase
      direction 0.000000 0.000000 1.000000
      length 2.952750
      axis 0.0 0.0 0.0 xyz
      dof rx ry rz
   end
:hierarchy
   begin
      root Spine_dum LeftUpLeg_dum RightUpLeg_dum
      Spine_dum Spine
      LeftUpLeg_dum LeftUpLeg
      RightUpLeg_dum RightUpLeg
      Spine Spine_dum1 Spine_dum2 Spine_dum3
      Spine_dum1 Head
      Spine_dum2 LeftShoulder
      Spine_dum3 RightShoulder
      LeftShoulder LeftArm
      LeftArm LeftForeArm
      LeftForeArm LeftHand
      LeftHand LeftHand_dum1 LeftHand_dum2
      LeftHand_dum1 LeftHandThumb1
      RightShoulder RightArm
      RightArm RightForeArm
      RightForeArm RightHand
      RightHand RightHand_dum1 RightHand_dum2
      RightHand_dum1 RightHandThumb1
      LeftUpLeg LeftLeg
      LeftLeg LeftFoot
      LeftFoot LeftToeBase
      RightUpLeg RightLeg
      RightLeg RightFoot
      RightFoot RightToeBase
   end

# File created by Blade
# Date/Time:  Wed Sep 24 20:26:02 2014
# Frame Rate: 120.000 fps
#------------------------------------------------------
:FULLY-SPECIFIED
:DEGREES
1
root -8.917693 32.717984 -3.777229 19.264928 -78.659273 -8.026704
Spine -12.734056 4.637357 -0.060237
Head -10.151167 -3.986931 12.569908
LeftShoulder -16.197621 18.198271 24.801630
LeftArm 18.459449 -27.840794 -34.705745
LeftForeArm 7.728272 -0.000000 14.052284
LeftHand -29.777942 -0.000000 1.796367
LeftHandThumb1 -26.253704 0.000000 33.147579
RightShoulder -20.129073 13.285116 -38.474687
RightArm -17.746707 9.541501 34.027377
RightForeArm -28.608809 0.000000 18.182310
RightHand -13.600097 0.000000 -1.024728
RightHandThumb1 -24.326973 -0.000000 -32.862282
LeftUpLeg -6.620546 3.935484 2.442376
LeftLeg -2.113066 -0.000000 0.000000
LeftFoot -9.110645 2.752662 -16.577422
LeftToeBase 7.093539 -0.000000 -0.000000
RightUpLeg -5.464742 -8.508260 -0.824732
RightLeg 1.531125 -0.000000 -0.000000
RightFoot -10.760844 -7.806762 -2.046409
RightToeBase -0.460843 -0.000000 0.000000
2
root -8.917949 32.717486 -3.772863 19.250936 -78.653997 -8.012486
Spine -12.741772 4.641741 -0.063013
Head -10.118793 -4.006503 12.540063
LeftShoulder -16.195130 18.210938 24.818696
LeftArm 18.464949 -27.870176 -34.736678
LeftForeArm 7.801364 -0.000000 14.088122
LeftHand -29.518400 0.000000 1.632845
LeftHandThumb1 -26.253704 0.000000 33.147579
RightShoulder -20.119843 13.281699 -38.481142
RightArm -17.755209 9.580598 34.037266
RightForeArm -28.650748 -0.000000 18.190553
RightHand -13.576802 0.000000 -0.983459
RightHandThumb1 -24.326973 -0.000000 -32.862282
LeftUpLeg -6.625820 3.926050 2.435242
LeftLeg -2.094537 -0.000000 0.000000
LeftFoot -9.105727 2.771969 -16.623891
LeftToeBase 7.027903 -0.000000 -0.000000
RightUpLeg -5.462346 -8.526676 -0.833784
RightLeg 1.527353 -0.000000 -0.000000
RightFoot -10.768983 -7.789697 -2.012045
RightToeBase -0.431594 -0.000000 0.000000
3
root -8.917253 32.717376 -3.767140 19.237928 -78.651129 -8.003158
Spine -12.734708 4.653493 -0.062025
Head -10.087673 -4.025318 12.515159
LeftShoulder -16.193248 18.186396 24.816910
LeftArm 18.455808 -27.875044 -34.719217
LeftForeArm 7.846912 -0.000000 14.082947
LeftHand -29.526970 -0.000000 1.620947
LeftHandThumb1 -26.253704 0.000000 33.147579
RightShoulder -20.128662 13.292020 -38.482430
RightArm -17.746178 9.584632 34.038796
RightForeArm -28.658140 -0.000000 18.187319
RightHand -13.586100 -0.000000 -0.967258
RightHandThumb1 -24.326973 -0.000000 -32.862282
LeftUpLeg -6.620104 3.903877 2.426374
LeftLeg -2.103421 -0.000000 0.000000
LeftFoot -9.124449 2.755269 -16.547266
LeftToeBase 7.112176 -0.000000 -0.000000
RightUpLeg -5.455302 -8.548334 -0.844149
RightLeg 1.506119 -0.000000 -0.000000
RightFoot -10.752652 -7.750207 -2.071574
RightToeBase -0.489145 -0.000000 0.000000
4
root -8.917037 32.716932 -3.762508 19.238694 -78.649435 -8.003354
Spine -12.738240 4.656587 -0.061169
Head -10.047744 -4.041834 12.492398
LeftShoulder -16.190857 18.181955 24.803860
LeftArm 18.369829 -27.716011 -34.590530
LeftForeArm 7.633350 -0.000000 14.116566
LeftHand -29.471776 -0.000000 1.591467
LeftHandThumb1 -26.253704 0.000000 33.147579
RightShoulder -20.123910 13.294039 -38.489392
RightArm -17.739052 9.601216 34.055887
RightForeArm -28.673738 -0.000000 18.183271
RightHand -13.591947 -0.000000 -0.966302
RightHandThumb1 -24.326973 -0.000000 -32.862282
LeftUpLeg -6.616350 3.873430 2.424542
LeftLeg -2.104377 -0.000000 0.000000
LeftFoot -9.122356 2.786561 -16.612750
LeftToeBase 7.035967 -0.000000 -0.000000
RightUpLeg -5.450959 -8.562045 -0.852599
RightLeg 1.498726 -0.000000 -0.000000
RightFoot -10.742317 -7.724645 -2.058185
RightToeBase -0.556371 -0.000000 0.000000
5
root -8.916455 32.716713 -3.756643 19.200805 -78.644987 -7.968008
Spine -12.733856 4.663732 -0.067645
Head -10.016586 -4.062562 12.472015
LeftShoulder -16.203434 18.181847 24.803885
LeftArm 18.431757 -27.798603 -34.634859
LeftForeArm 7.752663 -0.000000 14.068945
LeftHand -29.681015 -0.000000 1.644684
LeftHandThumb1 -26.253704 0.000000 33.147579
RightShoulder -20.123557 13.283809 -38.491983
RightArm -17.735194 9.653897 34.068154
RightForeArm -28.718467 -0.000000 18.180968
RightHand -13.602772 -0.000000 -0.988486
RightHandThumb1 -24.326973 -0.000000 -32.862282
LeftUpLeg -6.613139 3.864819 2.408027
LeftLeg -2.108278 -0.000000 0.000000
LeftFoot -9.126585 2.791069 -16.585358
LeftToeBase 7.032696 -0.000000 -0.000000
RightUpLeg -5.442241 -8.567672 -0.869366
RightLeg 1.492159 -0.000000 -0.000000
RightFoot -10.740380 -7.721652 -2.053569
RightToeBase -0.516552 -0.000000 0.000000
6
root -8.915640 32.716751 -3.750848 19.172728 -78.649960 -7.935094
Spine -12.740150 4.673771 -0.080842
Head -9.980639 -4.101693 12.443041
LeftShoulder -16.199191 18.172460 24.818518
LeftArm 18.407674 -27.762531 -34.613586
LeftForeArm 7.760629 0.000000 14.087068
LeftHand -29.509867 -0.000000 1.584963
LeftHandThumb1 -26.253704 0.000000 33.147579
RightShoulder -20.126920 13.294653 -38.489495
RightArm -17.718637 9.624346 34.089966
RightForeArm -28.653265 -0.000000 18.193653
RightHand -13.869407 0.000000 -0.913290
RightHandThumb1 -24.326973 -0.000000 -32.862282
LeftUpLeg -6.621886 3.869962 2.389413
LeftLeg -2.104121 -0.000000 0.000000
LeftFoot -9.124628 2.741465 -16.560111
LeftToeBase 7.050778 -0.000000 -0.000000
RightUpLeg -5.451367 -8.560466 -0.887312
RightLeg 1.502163 -0.000000 -0.000000
RightFoot -10.751435 -7.727314 -2.009914
RightToeBase -0.498158 -0.000000 0.000000
7
root -8.915076 32.716483 -3.745773 19.201328 -78.658431 -7.965062
Spine -12.741628 4.687111 -0.074054
Head -9.936422 -4.127083 12.404490
LeftShoulder -16.201513 18.183179 24.799855
LeftArm 18.390957 -27.719394 -34.557143
LeftForeArm 7.727571 -0.000000 14.085928
LeftHand -29.510926 -0.000000 1.623232
LeftHandThumb1 -26.253704 0.000000 33.147579
RightShoulder -20.114137 13.283250 -38.492545
RightArm -17.710665 9.656975 34.105954
RightForeArm -28.668856 0.000000 18.194273
RightHand -13.880291 0.000000 -0.919862
RightHandThumb1 -24.326973 -0.000000 -32.862282
LeftUpLeg -6.613991 3.856860 2.385661
LeftLeg -2.105046 -0.000000 0.000000
LeftFoot -9.147366 2.807755 -16.578244
LeftToeBase 7.051934 -0.000000 -0.000000
RightUpLeg -5.467390 -8.512507 -0.899061
RightLeg 1.541272 -0.000000 -0.000000
RightFoot -10.778429 -7.754317 -1.999583
RightToeBase -0.460940 -0.000000 0.000000
8
root -8.914377 32.716360 -3.739800 19.185752 -78.656497 -7.950020
Spine -12.738016 4.701102 -0.079291
Head -9.905135 -4.166638 12.382915
LeftShoulder -16.212243 18.207352 24.811943
LeftArm 18.454626 -27.744037 -34.596201
LeftForeArm 7.770983 -0.000000 14.033705
LeftHand -29.474505 -0.000000 1.651230
LeftHandThumb1 -26.253704 0.000000 33.147579
RightShoulder -20.121356 13.281168 -38.477947
RightArm -17.685430 9.607770 34.104029
RightForeArm -28.576426 -0.000000 18.141599
RightHand -13.747219 -0.000000 -1.142775
RightHandThumb1 -24.326973 -0.000000 -32.862282
LeftUpLeg -6.611422 3.850325 2.373355
LeftLeg -2.108087 -0.000000 0.000000
LeftFoot -9.140661 2.813267 -16.538483
LeftToeBase 7.015121 -0.000000 -0.000000
RightUpLeg -5.462287 -8.510100 -0.910110
RightLeg 1.531136 -0.000000 -0.000000
RightFoot -10.770347 -7.776131 -1.980911
RightToeBase -0.488012 -0.000000 0.000000
9
root -8.914290 32.716166 -3.733164 19.157698 -78.655980 -7.925329
Spine -12.734894 4.711574 -0.087600
Head -9.875802 -4.194075 12.365984
LeftShoulder -16.212314 18.212022 24.808165
LeftArm 18.456736 -27.733888 -34.569433
LeftForeArm 7.801406 -0.000000 14.019101
LeftHand -29.436495 -0.000000 1.653719
LeftHandThumb1 -26.253704 0.000000 33.147579
RightShoulder -20.119397 13.281492 -38.464651
RightArm -17.679483 9.605307 34.093559
RightForeArm -28.589096 0.000000 18.131178
RightHand -13.698810 -0.000000 -1.102819
RightHandThumb1 -24.326973 -0.000000 -32.862282
LeftUpLeg -6.607576 3.859389 2.356129
LeftLeg -2.107736 -0.000000 0.000000
LeftFoot -9.137990 2.785044 -16.528218
LeftToeBase 7.009317 -0.000000 -0.000000
RightUpLeg -5.449912 -8.515555 -0.925460
RightLeg 1.520294 -0.000000 -0.000000
RightFoot -10.780123 -7.762494 -1.949164
RightToeBase -0.453300 -0.000000 0.000000
10
root -8.914211 32.715627 -3.726396 19.134191 -78.654323 -7.907341
Spine -12.728631 4.730237 -0.091910
Head -9.835643 -4.228322 12.353631
LeftShoulder -16.213494 18.235891 24.787059
LeftArm 18.489840 -27.706519 -34.527353
LeftForeArm 7.787918 -0.000000 13.986894
LeftHand -29.457734 -0.000000 1.673135
LeftHandThumb1 -26.253704 0.000000 33.147579
RightShoulder -20.111817 13.277071 -38.459913
RightArm -17.695934 9.608574 34.078860
RightForeArm -28.649036 -0.000000 18.171166
RightHand -13.852797 0.000000 -0.804146
RightHandThumb1 -24.326973 -0.000000 -32.862282
LeftUpLeg -6.593589 3.840615 2.344409
LeftLeg -2.118110 -0.000000 0.000000
LeftFoot -9.144959 2.804942 -16.460119
LeftToeBase 7.013975 -0.000000 -0.000000
RightUpLeg -5.436792 -8.545566 -0.935730
RightLeg 1.503764 -0.000000 -0.000000
RightFoot -10.753774 -7.773125 -2.005139
RightToeBase -0.467816 -0.000000 0.000000
